<svg version="1.0" xmlns="http://www.w3.org/2000/svg"
 width="2835.000000pt" height="1418.000000pt" viewBox="0 0 2835.000000 1418.000000"
 preserveAspectRatio="xMidYMid meet">

<g transform="translate(0.000000,1418.000000) scale(0.100000,-0.100000)"
fill="transparent" stroke="none">
<path d="M0 7090 l0 -7090 14175 0 14175 0 0 7090 0 7090 -14175 0 -14175 0 0
-7090z m9710 4050 c653 -80 1196 -300 1647 -668 598 -489 968 -1182 1079
-2023 22 -167 30 -608 15 -792 -21 -253 -59 -466 -121 -685 -266 -942 -936
-1557 -1730 -1589 -156 -6 -248 5 -368 46 -117 41 -185 84 -282 181 -70 70
-94 102 -133 180 -64 128 -97 260 -104 423 -5 115 -8 127 -25 127 -10 0 -18
-4 -18 -10 0 -5 -34 -60 -75 -120 -378 -560 -853 -830 -1458 -830 -512 0 -938
323 -1107 840 -60 185 -75 290 -75 550 0 141 6 267 13 315 57 354 134 598 281
882 323 621 890 1088 1553 1279 282 81 511 109 828 101 376 -10 713 -74 1003
-190 74 -30 82 -36 79 -58 -2 -13 -86 -465 -187 -1004 -255 -1363 -251 -1334
-242 -1613 7 -240 43 -356 139 -458 58 -62 125 -93 217 -103 293 -29 603 164
833 519 202 310 328 721 367 1195 13 155 6 524 -14 690 -142 1227 -872 2058
-1999 2274 -376 73 -840 72 -1226 0 -1301 -245 -2296 -1274 -2584 -2674 -93
-452 -116 -982 -61 -1407 139 -1074 721 -1876 1640 -2258 285 -118 632 -192
978 -208 615 -28 1240 89 1700 319 116 59 117 59 126 37 98 -264 161 -439 161
-447 0 -10 -144 -81 -292 -145 -319 -135 -688 -226 -1108 -273 -197 -21 -771
-25 -930 -5 -674 84 -1238 313 -1720 699 -111 88 -312 284 -410 398 -406 474
-666 1065 -760 1725 -29 206 -37 326 -39 566 -8 1052 336 2062 964 2832 264
322 580 601 930 822 164 103 489 263 668 330 337 125 717 208 1092 239 135 12
638 6 755 -9z m10180 -3190 c0 -830 4 -1510 8 -1510 5 0 26 26 48 57 82 119
256 330 720 872 l479 560 358 1 358 0 -293 -313 c-754 -805 -953 -1020 -952
-1031 1 -6 148 -207 327 -446 179 -239 499 -667 710 -950 l385 -515 -361 -3
c-334 -2 -362 -1 -378 15 -9 10 -198 272 -420 583 -222 311 -467 654 -545 762
l-142 197 -151 -167 -150 -167 -1 -612 0 -613 -295 0 -295 0 0 2395 0 2395
295 0 295 0 0 -1510z m-5218 35 c62 -8 149 -24 193 -36 456 -119 735 -475 794
-1015 6 -49 11 -440 13 -869 2 -880 12 -1184 44 -1362 l6 -33 -268 0 -269 0
-22 201 c-13 111 -25 204 -27 206 -2 3 -55 -47 -118 -109 -197 -199 -394 -301
-666 -348 -498 -86 -930 101 -1122 485 -79 157 -94 226 -94 440 -1 156 2 192
22 269 146 577 748 902 1722 932 102 3 190 7 195 9 6 1 9 41 8 101 -10 363
-173 597 -472 676 -98 25 -312 35 -447 19 -212 -25 -446 -98 -594 -185 -41
-24 -78 -41 -81 -38 -8 8 -129 373 -129 388 0 18 221 122 360 168 145 48 334
90 471 105 135 14 359 12 481 -4z m3158 4 c128 -15 224 -37 337 -74 99 -33
236 -96 247 -113 5 -8 -127 -418 -137 -429 -2 -2 -42 17 -88 41 -225 120 -529
174 -734 131 -96 -20 -205 -76 -264 -135 -120 -120 -153 -312 -81 -467 65
-140 204 -232 580 -383 294 -118 466 -220 598 -350 174 -174 252 -370 252
-634 -1 -438 -273 -780 -725 -911 -142 -41 -247 -56 -430 -62 -256 -8 -491 27
-720 107 -72 26 -237 101 -253 115 -5 4 129 428 138 438 4 4 52 -14 106 -41
121 -61 268 -113 406 -144 137 -31 415 -33 518 -5 219 60 353 196 380 386 20
141 -18 281 -101 374 -98 110 -215 178 -504 291 -439 174 -667 348 -790 607
-45 96 -65 189 -65 316 -1 484 352 853 895 937 110 17 321 20 435 5z m-2692
-3635 c15 -4 22 -14 22 -29 0 -44 -9 -54 -45 -48 -79 13 -113 -19 -124 -117
l-7 -60 69 0 68 0 -3 -37 -4 -38 -59 -1 -60 -2 -6 -223 c-3 -123 -6 -225 -7
-226 -1 -2 -22 -3 -47 -3 l-45 0 0 224 0 225 -37 3 c-36 3 -38 5 -39 41 -1 36
-1 37 36 37 l37 0 5 64 c7 87 39 144 98 174 43 21 102 28 148 16z m4172 -394
l0 -390 -50 0 -50 0 0 390 0 390 50 0 50 0 0 -390z m-5218 342 c25 -10 26 -13
16 -51 -12 -47 -11 -46 -68 -26 -111 39 -230 -10 -230 -95 0 -58 44 -98 161
-144 147 -59 204 -155 167 -280 -29 -97 -137 -153 -277 -143 -81 5 -161 31
-161 52 0 6 5 26 11 43 l10 30 47 -21 c61 -28 172 -30 219 -4 61 33 80 105 43
165 -16 26 -43 44 -118 78 -53 25 -112 57 -131 71 -39 30 -71 94 -71 143 0 78
65 160 147 187 43 15 193 11 235 -5z m4330 0 c25 -10 26 -13 16 -51 -6 -23
-13 -41 -17 -41 -3 0 -28 7 -55 15 -63 19 -106 19 -154 0 -89 -36 -94 -141
-10 -193 18 -11 63 -32 99 -47 125 -49 188 -131 177 -229 -15 -133 -125 -206
-292 -193 -77 6 -156 32 -156 52 0 6 5 26 11 43 l10 30 44 -19 c111 -49 240
-28 270 45 37 87 8 132 -123 192 -53 25 -112 57 -131 71 -39 30 -71 94 -71
143 0 78 65 160 147 187 43 15 193 11 235 -5z m2110 -9 c22 -20 23 -61 1 -85
-34 -38 -103 -11 -103 40 0 54 62 81 102 45z m-5192 -134 l0 -59 69 0 69 0 -2
-37 c-1 -22 -7 -39 -14 -39 -6 -1 -37 -2 -67 -3 l-55 -1 0 -168 c0 -157 1
-170 21 -191 17 -18 30 -22 63 -19 41 3 41 2 44 -33 3 -31 -1 -37 -20 -43 -79
-21 -167 7 -190 62 -8 16 -15 102 -18 212 l-5 184 -37 -1 c-38 0 -38 0 -38 38
0 39 0 39 40 39 l40 0 0 49 c0 49 0 49 43 64 23 8 45 12 50 10 4 -2 7 -31 7
-64z m4855 44 c2 -10 4 -37 4 -60 l1 -43 70 0 70 0 -3 -37 -2 -38 -68 -3 -67
-3 0 -169 c0 -159 1 -171 21 -191 15 -15 31 -20 62 -17 42 3 42 2 45 -33 3
-31 -1 -37 -20 -43 -42 -11 -103 -6 -138 12 -57 28 -64 54 -70 262 l-5 185
-37 -3 -38 -4 0 41 0 41 40 0 40 0 0 49 c0 49 0 49 43 64 47 16 47 16 52 -10z
m-5569 -121 c93 -47 140 -143 132 -266 -10 -157 -114 -256 -266 -256 -156 0
-261 123 -250 294 8 118 66 203 166 241 53 21 166 14 218 -13z m2037 14 c49
-20 95 -78 101 -128 3 -24 7 -123 9 -220 l4 -178 -43 0 c-42 0 -44 1 -44 30 0
36 -4 37 -33 9 -72 -70 -214 -64 -269 11 -10 14 -21 42 -24 62 -21 125 70 210
241 225 l76 6 -7 31 c-10 49 -23 67 -62 83 -39 16 -102 11 -160 -13 -32 -13
-33 -12 -43 13 -14 37 -8 45 47 65 59 21 162 23 207 4z m537 -30 l0 -43 -42
-6 c-51 -7 -87 -33 -110 -78 -15 -28 -18 -62 -18 -201 l0 -168 -50 0 -49 0 -3
265 -3 265 43 0 c44 0 46 -2 45 -73 0 -14 10 -8 36 21 45 50 66 61 114 62 l37
0 0 -44z m368 29 c79 -34 122 -103 130 -207 l5 -68 -192 0 -191 0 6 -27 c23
-109 78 -153 191 -153 38 0 84 5 102 11 37 13 37 14 45 -27 7 -29 4 -33 -26
-44 -52 -18 -170 -24 -226 -11 -60 15 -123 66 -155 125 -18 34 -22 57 -22 136
0 84 3 101 27 147 30 56 79 101 130 120 47 17 133 16 176 -2z m1377 -9 c101
-46 152 -146 143 -276 -11 -152 -116 -250 -267 -250 -109 0 -202 68 -237 173
-37 111 2 261 83 323 77 58 191 71 278 30z m2101 -4 c93 -47 140 -143 132
-266 -11 -164 -125 -266 -282 -254 -154 13 -245 126 -234 292 8 118 66 203
166 241 53 21 166 14 218 -13z m591 17 c46 -17 92 -69 108 -123 11 -36 15
-100 15 -228 l0 -178 -50 0 -50 0 0 168 c0 92 -5 183 -10 203 -30 108 -168
118 -230 17 -18 -30 -20 -51 -20 -210 l0 -178 -50 0 -49 0 -3 265 -3 265 41 0
c43 0 54 -10 54 -52 0 -18 2 -18 33 8 17 15 46 33 62 40 37 16 114 18 152 3z
m-5991 -56 c9 -32 33 -124 54 -206 34 -135 50 -183 50 -146 0 8 27 103 62 212
l62 197 42 0 43 0 37 -117 c20 -65 49 -161 64 -213 l28 -95 12 45 c6 25 32
120 58 213 l46 167 48 0 c27 0 48 -3 48 -7 0 -4 -36 -118 -80 -254 -44 -135
-80 -252 -80 -258 0 -7 -20 -11 -50 -11 l-49 0 -50 158 c-27 86 -56 180 -64
207 l-15 50 -7 -32 c-4 -18 -33 -110 -64 -205 l-57 -173 -48 0 -49 0 -73 240
c-40 132 -75 250 -79 263 -5 21 -2 22 44 22 l50 0 17 -57z m3924 -120 c0 -153
3 -184 19 -219 31 -68 113 -82 177 -32 47 37 54 72 54 258 l0 170 50 0 50 0 0
-265 0 -265 -45 0 -45 0 0 40 0 41 -34 -35 c-67 -67 -183 -76 -254 -19 -60 48
-71 95 -72 316 l0 187 50 0 50 0 0 -177z m970 -88 l0 -265 -50 0 -50 0 0 265
0 265 50 0 50 0 0 -265z"/>
<path d="M9285 8764 c-674 -69 -1249 -556 -1494 -1266 -78 -227 -113 -441
-114 -688 0 -296 68 -493 224 -651 48 -49 88 -77 150 -108 125 -61 191 -75
344 -75 153 1 247 25 393 98 384 194 748 679 897 1193 22 75 258 1304 267
1387 3 29 0 31 -67 52 -38 12 -113 29 -165 38 -93 16 -356 28 -435 20z"/>
<path d="M14780 6333 c-594 -40 -931 -215 -1033 -538 -29 -92 -30 -288 -3
-380 59 -196 206 -328 410 -365 84 -16 255 -8 340 15 162 43 262 102 386 225
76 76 104 113 142 185 71 137 78 187 78 555 l0 310 -137 -2 c-76 -1 -158 -3
-183 -5z"/>
<path d="M14453 4029 c-99 -29 -143 -201 -80 -313 60 -108 201 -105 257 5 60
117 14 280 -88 309 -43 11 -46 11 -89 -1z"/>
<path d="M16545 3825 c-78 -28 -109 -102 -65 -158 27 -34 68 -42 118 -21 56
22 82 65 82 138 l0 56 -47 0 c-27 -1 -66 -7 -88 -15z"/>
<path d="M17414 4026 c-37 -16 -72 -62 -80 -105 l-6 -31 139 0 140 0 -7 41
c-16 84 -107 131 -186 95z"/>
<path d="M18790 4030 c-104 -25 -152 -198 -87 -315 31 -56 100 -90 154 -76 53
15 80 36 103 82 42 81 35 189 -16 256 -39 51 -89 68 -154 53z"/>
<path d="M20880 4030 c-104 -25 -152 -198 -87 -315 31 -56 100 -90 154 -76 53
15 80 36 104 82 47 92 30 220 -36 278 -20 17 -41 31 -48 31 -7 0 -21 2 -32 4
-11 3 -36 1 -55 -4z"/>
</g>
</svg>